<svg id="Layer_1" data-name="Layer 1" xmlns="http://www.w3.org/2000/svg" viewBox="0 0 180 54"><title>Artboard 1</title><path d="M87.85,53h-.23A1.76,1.76,0,0,1,86,51.16c.14-1.28.27-2.58.39-3.84l0-.18c.09-.9.17-1.8.25-2.69,0-.45.09-.89.13-1.34l0-.26c0-.32,0-.63.07-.94v0c.05-.72.11-1.47.18-2.22.09-1,.19-2.07.28-3.08,0-.45.09-.9.13-1.35l.06-.65c.07-.66.13-1.33.19-2,0-.11,0-.23,0-.38s0-.16,0-.26c-.29.31-.56.63-.82,1A8,8,0,0,1,86,34a2.06,2.06,0,0,1-.61.67,1.63,1.63,0,0,1-1.52.82,2.09,2.09,0,0,1-.88-.2,1.61,1.61,0,0,1-.93-1.2,1.57,1.57,0,0,1,.47-1.39c.2-.23.39-.47.58-.71.51-.64,1.05-1.31,1.64-1.92l.07-.12a1.54,1.54,0,0,1,.54-.62.36.36,0,0,1,.11-.26c.84-1.09,1.68-2.25,2.51-3.45a.83.83,0,0,1,.15-.17l.08-.08v0a4.17,4.17,0,0,0,.47-2.05c0-.24,0-.49,0-.73.1-.84.2-1.69.29-2.52h0c.19-1.73.39-3.5.63-5.25l0-.16,0-.17h0a.09.09,0,0,1,0-.05v0h0c0-.77.16-1.54.27-2.28,0-.24.07-.48.1-.72a45.58,45.58,0,0,1,1-5.69,15.56,15.56,0,0,1,1.15-3.12A4.8,4.8,0,0,1,95,0h1.34l.17.09A4.46,4.46,0,0,1,97.89,1l.08.09a.47.47,0,0,1,.18.28,2.7,2.7,0,0,1,.57,1.1l0,.14a13.29,13.29,0,0,1,.32,5.78,28.12,28.12,0,0,1-.77,4s0,0,0,.07a.83.83,0,0,1-.15.35l0,.14,0,.15a30.44,30.44,0,0,1-1.28,3.81.27.27,0,0,1-.07.08l0,0a8.16,8.16,0,0,1-.67,1.65l-.14.28c-.5,1-1,2.06-1.56,3.06l-.19.37a2,2,0,0,1-.2.31l-.1.13c0,.11,0,.23-.17.26h0a9.34,9.34,0,0,1-1,1.8l-.12.18a3.76,3.76,0,0,0-.66,1.86c-.11,1.26-.23,2.53-.35,3.77h0c-.1,1-.2,2.12-.29,3.18a.73.73,0,0,1-.05.2c0,.16-.1.32.05.4l.1,0a1,1,0,0,0,.38-.14l.2-.1.19-.09a1,1,0,0,1,.38-.14h0l2.34-1.23.67-.46,2-1.4.17-.12a.76.76,0,0,1,.42-.23,6,6,0,0,1,1.14-1l.21-.15a2.59,2.59,0,0,1,.71-.65.57.57,0,0,1,.26-.25L101,28l1.56-1.69.25-.3a3.16,3.16,0,0,1,.38-.44,1.78,1.78,0,0,1,1.24-.47,2,2,0,0,1,1.07.31,1.61,1.61,0,0,1,.6,2.07v0a1.78,1.78,0,0,1-.73.87h0a.33.33,0,0,1-.2.3h0a6.75,6.75,0,0,1-1.32,1.4,16.85,16.85,0,0,1-2.12,2l-.3.25a3,3,0,0,1-.3.23l-.14.1a15.29,15.29,0,0,1-2.92,2.07h0a7.65,7.65,0,0,1-2.22,1.31h0a7.6,7.6,0,0,1-1.6.89l-.57.26c-.43.2-.88.37-1.22.5-.14.05-.21.1-.23.17s0,.14.08.27a22.48,22.48,0,0,0,5.58,6.2l.13.12,0,.06a7.31,7.31,0,0,1,.83.45,9,9,0,0,0,1,.51,7.81,7.81,0,0,0,3.12.71h0a4,4,0,0,0,2.71-.93l0,0a.46.46,0,0,1,.31-.15h0a1.42,1.42,0,0,1,.4-.51,3.19,3.19,0,0,0,.26-.26,12.63,12.63,0,0,0,1.11-1.75l.25-.44.09-.14,0-.07c1.33-2.62,2.66-5.54,4.19-9.17l0,0,0-.05h0v0a20.18,20.18,0,0,1,1.34-3.23,1,1,0,0,1,.71-.57h0a1.89,1.89,0,0,1,.85-.19,1.8,1.8,0,0,1,1.35.56,1.47,1.47,0,0,1,.41,1.16,23.75,23.75,0,0,1-.58,3.54l-.22,1.42-.23,1.42.19-.39a22.87,22.87,0,0,1,3.25-5.3,10.34,10.34,0,0,1,1.8-1.88.41.41,0,0,1,.24-.11h0a4.28,4.28,0,0,1,2.68-1.29l.44,0a3,3,0,0,1,1.45.34l.08,0a.65.65,0,0,1,.36.29.52.52,0,0,1,.36.32h0a.88.88,0,0,1,.48.57l.06.08,0,0,0,.06a5.09,5.09,0,0,1,.8,2.48,24.36,24.36,0,0,1,0,5.05c0,.35-.06.71-.08,1.06,0,.64-.1,1.29-.16,1.91,0,.29-.06.57-.08.86v.26c-.06,1.16-.06,2.33,0,3.49a.44.44,0,0,0,0,.1s0,.06,0,.09l0,.12a5.25,5.25,0,0,0,.38,1.34c.13.24.23.34.36.34a.76.76,0,0,0,.38-.16A8.24,8.24,0,0,0,131.46,44a26.12,26.12,0,0,0,2.9-6.55,18,18,0,0,1,2.73-5.72l.07-.09a7.15,7.15,0,0,1,1.8-1.84l0,0,0,0a5.23,5.23,0,0,1,1.61-1.19l.3-.17a3.93,3.93,0,0,1,.62-.3l.21-.09a2,2,0,0,1,.83-.18,1.94,1.94,0,0,1,1.07.32,1.52,1.52,0,0,1,.73,1.6l0,.27s0,.09,0,.14l0,0s0,0,0,0,0,0,0,0,0,0,.06,0a5.46,5.46,0,0,1,2-.41,4.14,4.14,0,0,1,1.34.22l.07,0a2.42,2.42,0,0,1,.92.46.31.31,0,0,1,.28.23h0a.37.37,0,0,1,.35.25,5.06,5.06,0,0,1,1.48,2,14,14,0,0,1,1.1,6.07c0,.23,0,.34,0,.39a.19.19,0,0,0,.12,0l.32,0h0a5.6,5.6,0,0,0,4.16-3.12c.27-.49.52-1,.77-1.47l.33-.67.08-.16a13.77,13.77,0,0,1,.62-1.66.07.07,0,0,1,0-.06l1-3.52h0c.21-1.18.36-2.39.5-3.56,0-.23.06-.46.08-.68.08-.6.16-1.2.25-1.78,0-.28.08-.57.11-.85a.08.08,0,0,1,0,0l-.84.06-1.67.11-3.13.16h-.4l-.09,0a.87.87,0,0,1-.36.05h-.28l-1.56.08h0c-1.18.06-2.39.12-3.59.14h0a1.82,1.82,0,0,1-1.64-.91,1.59,1.59,0,0,1,.07-1.63,1.85,1.85,0,0,1,1.59-.84l1.15,0,7.28-.31c.94,0,1.89-.1,2.81-.16l1.22-.08,0-.08,0-.08c.23-1.72.47-3.44.7-5.17.05-.35.1-.72.14-1.07v0a1.74,1.74,0,0,1,1.69-1.54l.26,0,.18,0a1.56,1.56,0,0,1,1.15.58,1.63,1.63,0,0,1,.39,1.25,1.08,1.08,0,0,1,0,.19l0,.1h0a.68.68,0,0,1-.05.4,14.06,14.06,0,0,1-.17,2.15c0,.1,0,.2,0,.3l0,.35a13.59,13.59,0,0,1-.19,1.9.42.42,0,0,0,0,.31.35.35,0,0,0,.26.08h.1l.22,0c2.24-.17,4.54-.35,6.8-.6l3.33-.38.9-.1.13,0,.14,0,.4-.07c.3-.06.6-.12.9-.15h.17a1.87,1.87,0,0,1,1.58.9.35.35,0,0,1,.06.14.46.46,0,0,0,.17.24v.82a1.44,1.44,0,0,0-.19.31.91.91,0,0,1-.51.54l0,.05a1.35,1.35,0,0,1-.9.38l-.14,0c-1.9.31-3.9.56-5.93.75l-6,.54c-.46,0-.93.07-1.38.09l-.61,0-.18,1.06-.54,3.2a.9.9,0,0,1-.06.22l0,.1h0a10.39,10.39,0,0,1-.21,1.36,11.62,11.62,0,0,0-.2,1.18c-.19,1.8-.41,3.94-.56,6.1,0,.45-.07.9-.1,1.34l0,.25a8.43,8.43,0,0,1,0,1.42c0,.18,0,.36,0,.53v.42a.78.78,0,0,1,0,.4.29.29,0,0,0,0,.09,13.52,13.52,0,0,1,0,2.11c0,.17,0,.34,0,.51l0,.66c0,.32,0,.66.08,1a19.28,19.28,0,0,0,.46,3.54,5.31,5.31,0,0,0,1,2.09l.1.09a2.8,2.8,0,0,0,1.45.34,6.07,6.07,0,0,0,1.12-.11A17.66,17.66,0,0,0,168.92,48a17.63,17.63,0,0,0,2.26-2.23l0-.05a.37.37,0,0,1,.21-.16,3.4,3.4,0,0,1,.72-1l.06-.06,0,0h0a1.75,1.75,0,0,1,1.65-1,2.33,2.33,0,0,1,.59.08,1.84,1.84,0,0,1,1.12.87,1.39,1.39,0,0,1,.07,1.11A6.85,6.85,0,0,1,173.8,48h0a.36.36,0,0,1-.19.26l-.1.13a3.8,3.8,0,0,1-.88.91.8.8,0,0,1-.44.41h0l-.05,0,0,0h0a4.81,4.81,0,0,1-1.16,1l-.19.14-.06,0,0,0a3.17,3.17,0,0,1-.88.57.85.85,0,0,1-.54.27,0,0,0,0,1,0,0h0a6.57,6.57,0,0,1-2.92,1,8.39,8.39,0,0,1-1,.06,5.79,5.79,0,0,1-3.86-1.36l0,0a1.53,1.53,0,0,1-.46-.52h0a3.42,3.42,0,0,1-.82-1.3,9.25,9.25,0,0,1-1-3.07,35.9,35.9,0,0,1-.36-6.39v-.64a.81.81,0,0,0-.38.28l-.06.07a9,9,0,0,1-6.51,2.89c-.41,0-.58.13-.68.47a12.75,12.75,0,0,1-2.38,4.7A8.74,8.74,0,0,1,144.13,51a1.82,1.82,0,0,1-.52.08h0a4.76,4.76,0,0,1-1.54.23,7.83,7.83,0,0,1-1.08-.07,7.62,7.62,0,0,1-3.44-1.31l-.1-.1,0-.06h0l-.1-.08h0a4.8,4.8,0,0,1-1.47-1.33h0l-.12-.14-.07-.09a1.83,1.83,0,0,1-.45-.74.14.14,0,0,1,0-.06.78.78,0,0,1-.27-.5.63.63,0,0,1-.2-.33,2,2,0,0,0-.1-.21l0-.07c0-.06,0-.11-.1-.12h0c-.09,0-.13.06-.16.13l0,0A12.83,12.83,0,0,1,132.79,48a.27.27,0,0,1-.07.08.71.71,0,0,1-.39.29h0l0,0,0,0h0a4.87,4.87,0,0,1-3.55,1.62,2.36,2.36,0,0,1-.38,0,3.77,3.77,0,0,1-3.06-2,.44.44,0,0,1-.06-.16s0-.05,0-.07a6.71,6.71,0,0,1-.78-2.65,28.18,28.18,0,0,1,.07-5.95l.06-.7c0-.33.06-.67.1-1h0l0-.41,0-.21,0-.2v-.47a8.87,8.87,0,0,1,0-1,11.76,11.76,0,0,0-.22-3.74l-.09-.07h-.16l-.09,0-.08,0a.61.61,0,0,1-.45.34l-.55.61c-.44.48-.9,1-1.3,1.49a2.65,2.65,0,0,0-.26.39,2.16,2.16,0,0,1-.47.61,13.18,13.18,0,0,1-.76,1.5l-.15.27h0a4.57,4.57,0,0,1-.56,1.18.05.05,0,0,1,0,0,12.72,12.72,0,0,1-.57,1.49c-.14.35-.3.71-.42,1.07l-.37.94-.18.42c-.28.78-.56,1.58-.82,2.34A60.76,60.76,0,0,1,115,50a4.52,4.52,0,0,1-.63,1,2.5,2.5,0,0,1-2.12,1.17,2,2,0,0,1-1.24-.4,1.58,1.58,0,0,1-.63-1.57c.16-1.11.33-2.24.5-3.33l.15-1a.13.13,0,0,1,0-.08l0,0a5.29,5.29,0,0,1,.09-.8,3.91,3.91,0,0,0,.09-1,.41.41,0,0,0-.27.27.36.36,0,0,1,0,.09,11.22,11.22,0,0,1-2.74,3.42,7.8,7.8,0,0,1-3,1.49,6.57,6.57,0,0,1-2.06.32,11.5,11.5,0,0,1-1.17-.08,10.83,10.83,0,0,1-3.7-1.05l-.07,0,0,0h0a6.83,6.83,0,0,1-2-1l-.33-.22a19.38,19.38,0,0,1-2.54-2.08.81.81,0,0,1-.26-.37,5.69,5.69,0,0,1-1.2-1.2l-.26-.3-.15-.16a1.85,1.85,0,0,1-.4-.56.06.06,0,0,1,0-.06l-.26-.25L90.55,42c0,.16,0,.31,0,.46,0,.31-.06.6-.09.88,0,.51-.08,1-.13,1.54-.19,2.21-.38,4.51-.67,6.76A1.76,1.76,0,0,1,87.85,53Zm55.09-21.8h0l-.24.11a7.81,7.81,0,0,0-2.9,2.75A14,14,0,0,0,138,38a.26.26,0,0,1-.08.25.11.11,0,0,1,0,.08l0,.28h0v0a20,20,0,0,0-.34,2.32,9,9,0,0,0,.7,4.6,4,4,0,0,0,3,2.33,4.47,4.47,0,0,0,.82.07,4.71,4.71,0,0,0,3.33-1.45,7.14,7.14,0,0,0,1.43-2.05,14.11,14.11,0,0,0,.87-2.35.67.67,0,0,1-.36-.17l-.08,0-.08,0,0,0h0l-.06,0,0,0h0a4,4,0,0,1-1.26-.89h0a.09.09,0,0,1-.09-.08c-.06,0-.09,0-.09-.08a2.7,2.7,0,0,1-1.16-1.06,1.74,1.74,0,0,1-.7-.84v0a2,2,0,0,1-.6-.87c-1.44-2.65-1.47-4.71-.08-6.66h0Zm3.41,2-.21,0a.64.64,0,0,0-.48.66c-.07,1.7.73,3.11,2.58,4.59a13.34,13.34,0,0,0-.58-3.6,3.57,3.57,0,0,0-.77-1.37.74.74,0,0,0-.54-.31ZM95.44,4.36h0a34,34,0,0,0-1.94,9.09h0v0c-.11.93-.23,1.9-.36,2.84,1.46-3.67,2.76-7.65,2.3-12Z" style="fill:#fff"/><path d="M6.24,54H5.43l-.07,0a2.32,2.32,0,0,1-1.19-1.18,1.56,1.56,0,0,1,.65-1.84A12.71,12.71,0,0,0,9.26,46.2,52.77,52.77,0,0,0,14,35.65c1-2.87,1.91-5.95,2.8-9.4a.5.5,0,0,1,.05-.13l0-.06c.1-.57.23-1.14.38-1.7.1-.39.21-.8.29-1.2l0-.08a1.17,1.17,0,0,1,.05-.2c0-.12.05-.2,0-.25s-.11-.07-.24-.07h-.21c-1.28.06-2.6.12-3.9.16l-3.1.13C8.62,22.93,7,23,5.48,23c-.55,0-1.11,0-1.65.07s-1.37.06-2,.06H1.63a1.56,1.56,0,0,1-1.42-1,1.25,1.25,0,0,1,.09-1.5h0A1,1,0,0,1,.93,20a.65.65,0,0,1,.53-.26l7-.24.6,0c.49,0,1,0,1.48,0H11l5.29-.26.5,0c.45,0,.92-.05,1.38-.06.29,0,.32-.16.35-.32a.13.13,0,0,1,0-.06c.24-1.18.48-2.39.72-3.55l.12-.62c.07-.38.15-.75.22-1.13v0l.14-.68A5.5,5.5,0,0,1,20,11.27,1.81,1.81,0,0,1,21.75,10a2.58,2.58,0,0,1,.39,0,1.72,1.72,0,0,1,1.45,2s0,0,0,.08c-.08.51-.18,1-.27,1.54,0,.3-.1.6-.16.9-.14.85-.29,1.7-.43,2.55h0l-.21,1.23v.09a.36.36,0,0,0,0,.1.37.37,0,0,0,.06.29.33.33,0,0,0,.3.09H23l2.87-.19,2-.12c.8-.06,1.86-.14,2.9-.29a2.12,2.12,0,0,1,.44,0,1.71,1.71,0,0,1,1.42.66l0,.08,0,.06a1.33,1.33,0,0,1,.29,1.32,1.72,1.72,0,0,1-1.22,1.19,9.59,9.59,0,0,1-1.76.26l-.27,0-.48,0a14,14,0,0,1-1.6.11h-.1l-.37,0L26,22.07h0c-1.2.09-2.44.17-3.66.24-.29,0-.39.1-.42.35-.19,1.43-.4,2.88-.59,4.29h0l-.21,1.51,0,.18c-.05.45-.09.89-.14,1.34v0c-.09.91-.18,1.85-.28,2.77-.15,1.43-.27,2.9-.35,4.38a30.9,30.9,0,0,0-.06,3.6A7.28,7.28,0,0,0,21,44a1.77,1.77,0,0,0,.16.22.81.81,0,0,1,.22.38l0,0,0,0,.27.18a3,3,0,0,0,1.12.52,3.79,3.79,0,0,0,.58,0,5,5,0,0,0,2.13-.57l.11-.06a1,1,0,0,1,.33-.12,1.47,1.47,0,0,1,.63-.41.6.6,0,0,1,.37-.33,40.2,40.2,0,0,0,4-5.6c0-.08.1-.16.16-.24l.08-.11a1,1,0,0,0,0-.1.54.54,0,0,1,.1-.2,4.88,4.88,0,0,0,.82-2.9v0c.13-1.85.29-3.7.49-5.53V29l0-.14c0-.31.05-.62.07-.93l.18-2.24c.06-.66.12-1.34.18-2,.08-.9.16-1.83.24-2.75.17-2.18.39-4.5.76-6.78a.11.11,0,0,1,0-.07l0,0h0a16.2,16.2,0,0,1,1.4-4.76.1.1,0,0,1,.07,0l0,0h0a4.26,4.26,0,0,1,1.28-1.8A4.47,4.47,0,0,1,40.17,6a3.34,3.34,0,0,1,1.67.42,3.6,3.6,0,0,1,1.62,2.07,11.14,11.14,0,0,1,.32,4.63,57.19,57.19,0,0,1-3,11.94l0,.16c-.07.18-.14.35-.22.52a2.56,2.56,0,0,0-.11.24A4.32,4.32,0,0,1,40,27.14a.16.16,0,0,1-.07.17A45.85,45.85,0,0,1,38,31.63a15,15,0,0,1-.83,2.14.17.17,0,0,1-.07.17,17.17,17.17,0,0,1-1.19,2.75,3.74,3.74,0,0,0-.36,1.47c0,.13,0,.26,0,.38a5.07,5.07,0,0,1-.17,1.29.19.19,0,0,1,0,.08c0,.06,0,.12.07.13h0c.09,0,.12-.09.15-.16s0,0,0,0c.16-.35.31-.71.45-1.05s.3-.71.46-1.06h0a37.44,37.44,0,0,1,3.29-6.35,13.49,13.49,0,0,1,3.29-3.57l.17-.07.08,0a3.33,3.33,0,0,1,2.2-.8,2.5,2.5,0,0,1,1.4.4,2.77,2.77,0,0,1,1.36,1.82,0,0,0,0,1,0,.05h0a5.05,5.05,0,0,1,.44,2.13c0,2-.05,4-.15,6,0,.69-.07,1.4-.1,2.1a17.7,17.7,0,0,0,.33,5,2.06,2.06,0,0,0,.21.48,2.32,2.32,0,0,1,.18.39h0l0,0,0,0h0a1.61,1.61,0,0,1,.45.41l.09.1a3.14,3.14,0,0,0,1.32.29A6.1,6.1,0,0,0,53,45.82l.32-.08.15,0c.24-.1.3-.25.23-.53A20.08,20.08,0,0,1,53,40.06a20.73,20.73,0,0,1,.46-4.44c0-.16.06-.32.1-.48a14.63,14.63,0,0,1,.67-2.52h0a3.25,3.25,0,0,1,.44-1.17.2.2,0,0,1,.08-.17,4.53,4.53,0,0,1,1-1.67,2.48,2.48,0,0,1,.75-1l.13-.16A1.28,1.28,0,0,1,57,28h0l.09-.09a.15.15,0,0,1,.15-.1h0a1.42,1.42,0,0,1,.82-.57,4,4,0,0,1,2.4-.79,6.51,6.51,0,0,1,1,.1,2.61,2.61,0,0,1,1.44.7h0l.13.07a3,3,0,0,1,1.17,1.51,0,0,0,0,1,0,0,4.08,4.08,0,0,1,.56,1.83l0,.18a14.75,14.75,0,0,1-.52,6.73.18.18,0,0,1,0,.07s0,0,0,0a5.89,5.89,0,0,1-.46,1.36v0A14.48,14.48,0,0,1,61.88,43a17.6,17.6,0,0,1-3.54,3.82.31.31,0,0,0-.14.42.21.21,0,0,0,0,.06l0,.07a2.69,2.69,0,0,0,1.17,1.32,2.42,2.42,0,0,0,1.06.24,3.41,3.41,0,0,0,1.77-.57,11.44,11.44,0,0,0,4-4.09,33.12,33.12,0,0,0,2-4.14l0-.06a.25.25,0,0,1,.16-.2,1.64,1.64,0,0,1,1.6-.93,1.72,1.72,0,0,1,.6.1,1.85,1.85,0,0,1,1.12.95,1.63,1.63,0,0,1,0,1.3,28.34,28.34,0,0,1-3,5.72l0,.06a.38.38,0,0,1-.23.2,2.62,2.62,0,0,1-.66,1l-.13.13A14.73,14.73,0,0,1,64.74,51l-.19.08-.09,0h0a6.27,6.27,0,0,1-2.58,1.08,6.82,6.82,0,0,1-1.5.16,5.63,5.63,0,0,1-3.25-1,1.81,1.81,0,0,1-.23-.18l-.1-.09a5.69,5.69,0,0,1-1.7-2c-.11-.19-.2-.26-.35-.26a.69.69,0,0,0-.24,0,10.58,10.58,0,0,1-3.39.62h-.2a5.8,5.8,0,0,1-4.29-1.93A6.34,6.34,0,0,1,45,43.88a26.09,26.09,0,0,1-.17-4.05c0-.39,0-.78,0-1.18.06-1.57.12-3.21.26-4.81a12.48,12.48,0,0,0-.15-3,11,11,0,0,0-2.33,2.75,54.62,54.62,0,0,0-3.77,8c-.16.41-.33.82-.5,1.23l-.14.36a16.14,16.14,0,0,1-.58,1.65l-.3.77q-.16.43-.33.9c-.46,1.27-.94,2.58-1.5,3.85a3.4,3.4,0,0,1-.86,1.29,2,2,0,0,1-1.29.46,1.86,1.86,0,0,1-1.62-.88,1.61,1.61,0,0,1-.35-1.1c0-.06,0-.12,0-.19a28.86,28.86,0,0,1,0-3.48c0-.55,0-1.12,0-1.68v-.65a4.5,4.5,0,0,0-.62.69c-.08.1-.15.2-.24.3l-.22.27a2.66,2.66,0,0,1-.71.71.82.82,0,0,1-.46.42h0l-.17.14-.1.08h0a1.49,1.49,0,0,1-.63.46l-.06,0a.6.6,0,0,1-.39.24,8.4,8.4,0,0,1-4.49,1.31A6.31,6.31,0,0,1,19,47.22l-.13-.12a2.17,2.17,0,0,1-.71-.88,4.08,4.08,0,0,1-1-1.68v0a3.58,3.58,0,0,1-.38-1.28l0-.08,0-.09v0l0-.22a.06.06,0,0,1,0-.06,6.48,6.48,0,0,1-.26-2.1v-.2a2.63,2.63,0,0,0-.08-.74l-.09.2-.19.46c-.63,1.61-1.27,3.07-2,4.47l-.05.09a.51.51,0,0,1-.21.29,3.49,3.49,0,0,1-.53,1.14c-.08.12-.16.26-.23.39a18.64,18.64,0,0,1-2,3.1A.2.2,0,0,1,11,50v0a4.29,4.29,0,0,1-.86,1.13l-.15.16A12,12,0,0,1,7,53.7l-.06,0a.45.45,0,0,1-.27.1h0Zm54.3-24.07a.51.51,0,0,0-.24.07,4,4,0,0,0-1.56,1.45,10,10,0,0,0-1.45,3.66A17.38,17.38,0,0,0,57,43.19a.33.33,0,0,0,.24-.15l0-.06a14.38,14.38,0,0,0,3.26-5.55,12.2,12.2,0,0,0,.63-5.9l0-.22v0a3.47,3.47,0,0,0-.28-1.05c-.11-.2-.21-.28-.36-.28ZM39.83,9.59a.38.38,0,0,0-.26.16l-.08.07-.14.18a.6.6,0,0,1-.25.25h0a7.08,7.08,0,0,1-.56,1.14h0c-.07.27-.15.54-.22.77v0c-.17.62-.34,1.25-.47,1.9-.26,1.41-.46,2.83-.59,4.21-.06.73-.13,1.47-.2,2.2v0l-.07.74-.1,1.15a.13.13,0,0,1,0,.06v.06h0s0,.08,0,.11v0l-.24,2.73,0,.15,0,0,0-.09c.58-1.41,1-2.86,1.41-4.08.52-1.76,1.2-4.08,1.7-6.48,0-.26,0-.52.08-.78v0L40,13.3v0h0l.15-1.44h0V11c0-.1,0-.2,0-.3h0c0-.24-.05-.48-.08-.72a.35.35,0,0,1,0-.06c0-.12,0-.26-.16-.3Z" style="fill:#fff"/></svg>