<svg id="Layer_1" data-name="Layer 1" xmlns="http://www.w3.org/2000/svg" viewBox="0 0 205.65 24"><title>2</title><path d="M9.48,24c-.33-4.77-1.25-9.38-4-13.54a13.59,13.59,0,0,0-1-1.36A2.43,2.43,0,0,0,2.33,7.94C1.16,8,.58,7.07,0,6.28V4.62c1-1.53,2.08-2,3.49-1.7,2,.46,2.85,2.53,1.6,4-.5.6-.35.88.07,1.36a22.91,22.91,0,0,1,4.31,7.77V11.89c0-.35-.12-.74.55-.76s.64.36.64.78a31.48,31.48,0,0,0,.16,4c.12-.34.23-.69.36-1a19.25,19.25,0,0,1,4-6.87c.35-.37.27-.56,0-.9A2.39,2.39,0,0,1,15,3.89,3,3,0,0,1,18.29,3a2.66,2.66,0,0,1,1.83,2.63A2.62,2.62,0,0,1,17.6,8a2.35,2.35,0,0,0-1.71.92,21.06,21.06,0,0,0-4.59,10A23.88,23.88,0,0,0,10.69,24Z"/><path d="M205.65,8.31c-3,0-5.91,0-8.86,0-.75,0-1.1.12-1,.9a23.35,23.35,0,0,1,0,3.13c0,.75.15,1,1,1,2.29-.06,4.57,0,6.86,0,.64,0,1,.08,1,.78s-.29.82-1,.81c-2.31,0-4.64,0-6.95,0-.66,0-1,.12-.93.8.06,1.2,0,2.4,0,3.6,0,.5.11.71.71.7,3.06,0,6.12,0,9.17,0v1.66c-3.55,0-7.1,0-10.66,0-.8,0-1.1-.13-1.08-.94q.06-6.51,0-13c0-.69.19-.89.95-.89,3.25,0,6.51,0,9.75,0a1.54,1.54,0,0,1,1.05.22Z"/><path d="M10.89,0c1.66.9,2.25,1.88,1.9,3.16a2.77,2.77,0,0,1-2.66,2A2.86,2.86,0,0,1,7.35,3.42a2.53,2.53,0,0,1,1.09-3C8.65.27,9,.26,9.07,0Z"/><path d="M30.75,17.29l2.9-8a13.63,13.63,0,0,0,.59-1.66c.15-.68.53-.85,1.25-.84,1.56,0,1.54,0,2,1.39,1,2.84,2,5.67,3.06,8.49a.68.68,0,0,0,.45.57c.49-1.36,1-2.71,1.46-4.07.65-1.84,1.33-3.67,1.92-5.53.2-.66.52-.86,1.25-.85,2.11,0,2.1,0,1.4,1.86-1.53,4-3.09,8.05-4.52,12.11-.39,1.1-1.18.8-2,.89s-1.06-.3-1.29-.93c-1.13-3.12-2.31-6.22-3.54-9.52-.4,1.06-.75,1.94-1.08,2.84-.87,2.29-1.77,4.57-2.56,6.89-.25.74-.73.77-1.35.71S29.39,21.92,29,21Q26.6,14.3,24,7.65c-.26-.69-.17-.88.67-.87,2.13,0,2.13,0,2.78,1.83q1.53,4.34,3.07,8.67h.21"/><path d="M120.19,16.77c0-3.19,0-6.11,0-9,0-.78.25-1,1.07-1,1.78,0,1.78,0,1.78,1.67,0,4.09,0,8.17,0,12.26,0,.7-.23.85-1,.89a2.49,2.49,0,0,1-2.26-1c-2.54-3.1-5.16-6.14-7.76-9.2-.33.18-.18.45-.18.66,0,2.86,0,5.72,0,8.58,0,.69-.13,1-1,1-1.86-.05-1.86,0-1.86-1.7,0-4,0-8,0-12.08,0-.77.16-1,1.08-1.06a2.8,2.8,0,0,1,2.57,1.18c2.2,2.71,4.5,5.35,6.77,8,.18.21.37.41.74.81"/><path d="M66.47,21.59a.59.59,0,0,1-.42-.13.7.7,0,0,1-.12-.54V16h0V7.37A.55.55,0,0,1,66,6.92a.48.48,0,0,1,.36-.12h0l.92,0,1.71,0,1.71,0A17.55,17.55,0,0,1,74.14,7a7.83,7.83,0,0,1,4.75,2.66,7.41,7.41,0,0,1,1.56,5.07,6.56,6.56,0,0,1-2.1,4.42,8.65,8.65,0,0,1-4.89,2.25,28.38,28.38,0,0,1-3.19.15h-3.8ZM69.4,9.2a.67.67,0,0,0-.49.14.75.75,0,0,0-.14.54c0,1,0,2,0,3v2.42h0c0,1,0,2,0,3a.83.83,0,0,0,.16.64.81.81,0,0,0,.6.18h.16c.41,0,.82,0,1.22,0,.63,0,1.27,0,1.9-.09,2.64-.31,4.46-2,4.63-4.37a4.81,4.81,0,0,0-3.9-5.31,8.72,8.72,0,0,0-2-.19H70.25l-.73,0Z"/><path d="M84.46,21.59a.72.72,0,0,1-.48-.14.77.77,0,0,1-.14-.6c0-1.65,0-3.32,0-4.94V12.48c0-1.61,0-3.27,0-4.91a.86.86,0,0,0,0-.16.58.58,0,0,1,.09-.48.52.52,0,0,1,.39-.13h.05l.95,0L87,6.8c.54,0,1.1,0,1.64,0A20.19,20.19,0,0,1,91.9,7c4.07.69,6.62,3.67,6.49,7.6a6.63,6.63,0,0,1-2.07,4.52,8.41,8.41,0,0,1-4.87,2.3,24.87,24.87,0,0,1-3.23.16H85.86l-1.34,0Zm2.82-12.4a.67.67,0,0,0-.45.14.73.73,0,0,0-.14.55c0,2.6,0,5.44,0,8.66a.67.67,0,0,0,.13.51.66.66,0,0,0,.47.13h1.23a18.41,18.41,0,0,0,2.35-.12,4.88,4.88,0,0,0,.84-9.6,8,8,0,0,0-2.13-.25H88l-.59,0h-.14Z"/><path d="M138,13.29c.94,0,1.88,0,2.82,0,.54,0,.69.16.69.64,0,1.69,0,3.39,0,5.08a.93.93,0,0,1-.4.79,10.79,10.79,0,0,1-10.53,1.11,7.29,7.29,0,0,1-4-8.15,7.82,7.82,0,0,1,7.09-6.13A10,10,0,0,1,140.25,8c.59.38.66.7.14,1.14a.13.13,0,0,0-.06.07c-.38.39-.68,1-1.15,1.13s-.93-.46-1.41-.7a5.92,5.92,0,0,0-6.91.9,5.36,5.36,0,0,0-.29,6.94,6.11,6.11,0,0,0,7,1.32c.4-.18,1-.25,1.07-.73a12.83,12.83,0,0,0,0-2.4c0-.24-.39-.17-.61-.17-.84,0-1.68,0-2.52,0s-1-.12-1-.85c.05-1.41,0-1.41,1.57-1.41H138"/><path d="M50.58,14.14c0-2.18,0-4.37,0-6.55,0-.58.14-.81.83-.8,3.43,0,6.85,0,10.28,0,.66,0,.85.17.85.77,0,1.6,0,1.6-1.75,1.6-2.19,0-4.37,0-6.55,0-.62,0-.83.17-.8.73a17.81,17.81,0,0,1,0,2.31c-.06.65.25.75.87.74,2.08,0,4.17,0,6.25,0,.7,0,1,.09,1,.83-.06,1.56,0,1.56-1.7,1.56-1.88,0-3.77,0-5.65,0-.56,0-.77.13-.75.67a22.21,22.21,0,0,1,0,2.58c0,.54.19.68.75.67,2.48,0,5,0,7.46,0,.76,0,1.06.14,1,.9-.06,1.49,0,1.49-1.59,1.49-3.12,0-6.25,0-9.37,0-1,0-1.16-.28-1.14-1.09,0-2.12,0-4.24,0-6.37"/><path d="M155.75,9.87c-1.41,3.77-2.76,7.36-4.09,11-.19.51-.37.81-1.07.82s-1-.36-1.15-.88c-1.66-4.32-3.34-8.62-5-12.95-.11-.28-.68-.71,0-1a1.54,1.54,0,0,1,1.91.59L149,14.56a33.12,33.12,0,0,0,1.75,4.06L153,12.31c.57-1.6,1.17-3.2,1.71-4.82.18-.54.46-.7,1.06-.71a.92.92,0,0,1,1,.72q1.86,5.25,3.77,10.5c.08.23.06.51.43.64l3.27-8.7.83-2.27a1.43,1.43,0,0,1,1.81-.9l.12,0c.57.19.17.51.08.75-1,2.55-1.95,5.1-2.93,7.64-.75,1.94-1.55,3.86-2.24,5.82-.22.6-.6.6-1.13.62a.86.86,0,0,1-1-.66c-1.24-3.44-2.52-6.87-3.78-10.3-.08-.2-.17-.4-.33-.81"/><path d="M189.51,21.55a2.36,2.36,0,0,1-2.1-1.17c-.63-.88-1.3-1.73-2-2.54-.4-.48-.82-1-1.22-1.46a1.24,1.24,0,0,0-1.09-.54H183l-1.58,0c-.51,0-1,0-1.44,0h-.11a.73.73,0,0,0-.53.16.77.77,0,0,0-.15.58c0,.64,0,1.29,0,1.92s0,1.55,0,2.33a.72.72,0,0,1-.14.55.89.89,0,0,1-.65.17h-.25c-.51,0-.92,0-.91-.73,0-3.82,0-7.92,0-13.29a.73.73,0,0,1,.16-.57.78.78,0,0,1,.6-.17h3.78c1,0,2.12,0,3.22,0a5.46,5.46,0,0,1,4.34,2,4.07,4.07,0,0,1,.54,3.61,4.16,4.16,0,0,1-3.19,2.81c-.42.11-.63.22-.67.37s.11.37.36.67c1,1.18,2,2.36,3,3.6h0l1.2,1.47A4.94,4.94,0,0,1,189.51,21.55Zm-9.26-7.28,1.3,0,1.32,0a21.09,21.09,0,0,0,2.38-.13,3.14,3.14,0,0,0,2.88-2.34,2.68,2.68,0,0,0-.47-2.19,3.28,3.28,0,0,0-2.45-1.15c-.93-.07-1.85-.07-2.63-.07h-2.81a.58.58,0,0,0-.44.13.53.53,0,0,0-.12.42c0,.54,0,1.09,0,1.62v3.07a.62.62,0,0,0,.12.49.49.49,0,0,0,.37.12h.54Z"/><path d="M104.82,14.22c0,2.21,0,4.43,0,6.64,0,.57-.19.73-.8.73-2.14,0-2.14.05-2.14-1.9,0-4,0-8,0-12,0-.73.22-.94,1-.93,1.94,0,1.94,0,1.94,1.81v5.63"/><path d="M170.8,14.12c0-2.18,0-4.36,0-6.54,0-.78.35-.82,1-.83s1,.11.94.8q0,6.63,0,13.27c0,.72-.33.78-1,.77s-1,0-1-.75c.05-2.24,0-4.48,0-6.72"/><path d="M12.33,8a2.18,2.18,0,0,1-2.19,2.16h0A2.29,2.29,0,0,1,7.7,8,2.3,2.3,0,0,1,10,5.91,2.19,2.19,0,0,1,12.33,8V8"/></svg>