<svg xmlns="http://www.w3.org/2000/svg" viewBox="0 0 137 90"><path d="M15.58,34.08c57.42-5,67.64,9.75,75.51,17.12l0,0c.15-.07.3-.1.45-.16-2.93-6.35-5.2-16.22-14.19-20.35-1.94-.9-9.17-1.66-18.84-1.66-12.31,0-28.58,1.24-42.9,5M79.74,15.66c-5,.82-15,3.37-23.33,9.69,18.78-9.38,31.11-4.27,34,3.51a.94.94,0,0,1,.15-.06c0-5.92-4.15-13.22-9.76-13.22a7.42,7.42,0,0,0-1.05.08m21.42-1.8c.47,3,1.67,5.41.67,8-.35.91-.91,1.22-.9,1.84a.11.11,0,0,0,0,.05c.09.06.2.12.29.19l0-.11c3.34-2.26,5.61-7.59,9.5-8.24-1.48-2.34-4-.49-5.66,0,0-1,.76-1,1.15-1.62C109,9.57,103.66,5.79,107.72.77c-4.24,1.27-7.39,7.85-6.56,13.09m1.91,27.6a6.33,6.33,0,0,1-.07,1l.15.23,0-.12a1.08,1.08,0,0,0,.47.22c8.43-3.44,20-22,31.58-24.61l-.76,0c-11,0-28.78,12.92-31.4,23.33" style="fill-rule:evenodd;fill:#ffffff;"/><path d="M25.82,52.63Q22,50.32,15.07,50.32H3.52V71.48h9.71q7.2,0,11.51-2.15,5.43-2.68,5.43-8.39t-4.35-8.31m.8,19.17q-5.35,2.64-13.55,2.64H0V47.36H15.11c5.32,0,9.58.93,12.75,2.8q5.84,3.47,5.83,10.78T26.62,71.8M56.39,59.13a14.3,14.3,0,0,0-7.51-1.71,12.59,12.59,0,0,0-7.11,1.83,6.21,6.21,0,0,0-3,5.48,6.11,6.11,0,0,0,3,5.44,12.91,12.91,0,0,0,7.11,1.75,14.06,14.06,0,0,0,7.39-1.83,6,6,0,0,0,3.2-5.36A6.12,6.12,0,0,0,56.39,59.13Zm3.08,15.35V71.64q-3.72,3.24-10.57,3.24a17.21,17.21,0,0,1-9.21-2.32,8.66,8.66,0,0,1-4.48-7.83,8.77,8.77,0,0,1,4.44-7.9,17.43,17.43,0,0,1,9.45-2.36q6.72,0,10.37,3.11V54.47H63v20Zm28.57,0V61.5a3.87,3.87,0,0,0-2.48-3.64,12.52,12.52,0,0,0-5.47-1,12.24,12.24,0,0,0-6.5,1.56,5.39,5.39,0,0,0-2.89,4.88V74.44H67.18V47.36H70.7v9.11Q74,53.88,80,53.87a17.67,17.67,0,0,1,7.33,1.36q4.2,1.88,4.2,5.91v13.3Zm7.44,0H99V19.87H95.48Zm7.35,0h3.52V54.31h-3.52Zm1.66-22.09a1.88,1.88,0,0,1-1.66-1.15V48.12A2.14,2.14,0,0,1,104.49,47a3.28,3.28,0,0,1,1.86,1V51.4A2.91,2.91,0,0,1,104.49,52.35Zm25.36,6.78a14.34,14.34,0,0,0-7.52-1.71,12.63,12.63,0,0,0-7.11,1.83,6.24,6.24,0,0,0-3,5.48,6.13,6.13,0,0,0,3,5.44,12.91,12.91,0,0,0,7.11,1.75,14.08,14.08,0,0,0,7.4-1.83,6,6,0,0,0,3.2-5.36A6.14,6.14,0,0,0,129.85,59.13Zm3.08,15.35V71.64q-3.74,3.24-10.57,3.24a17.21,17.21,0,0,1-9.21-2.32,8.64,8.64,0,0,1-4.48-7.83,8.77,8.77,0,0,1,4.44-7.9,17.43,17.43,0,0,1,9.45-2.36q6.72,0,10.37,3.11V54.47h3.51v20Z" style="fill-rule:evenodd;fill:#ffffff;"/><path d="M0,81.9H2.83v.79H1v2.47H2.37v.78H1v3.38H0Zm6.67,0h1v6.63H9.33v.79H6.71Zm9,5.71v-4c0-.56-.26-1-.85-1s-.83.43-.83,1v4c0,.56.25,1,.83,1s.85-.42.85-1m-2.64-.14V83.75a1.7,1.7,0,0,1,1.79-1.93,1.71,1.71,0,0,1,1.81,1.93v3.72a1.71,1.71,0,0,1-1.81,1.92,1.7,1.7,0,0,1-1.79-1.92m8.59-4.78v2.58h.58c.53,0,.77-.26.77-.73V83.41c0-.48-.24-.72-.77-.72Zm0,3.06v3.57h-1V81.9h1.65c1.16,0,1.62.57,1.62,1.54v1a1.26,1.26,0,0,1-1.23,1.45l1.45,3.41h-1ZM29.13,87h1.26l-.62-3.49h0ZM27.8,89.32l1.43-7.42h1.13l1.44,7.42h-1l-.29-1.56H29l-.27,1.56Zm7.84-7.42h1v6.63h1.65v.79H35.64Zm13.52,5.81V85.76h-.77c-.52,0-.75.25-.75.76v1.2c0,.56.21.87.73.87s.78-.35.79-.88m-2.48,0V86.63a1.13,1.13,0,0,1,.88-1.27,1.14,1.14,0,0,1-.76-1.21v-.69a1.43,1.43,0,0,1,1.57-1.64c1.17,0,1.58.55,1.58,1.68v.56h-.9v-.57c0-.6-.16-.87-.65-.87s-.69.29-.69.86v.79a.68.68,0,0,0,.76.74h1.94v.75h-.35v3.56h-.72v-.69a1.14,1.14,0,0,1-1.2.76c-1,0-1.46-.62-1.46-1.67M58.89,81.9h2.86v.79H59.86v2.47h1.36v.78H59.86v2.59h1.89v.79H58.89Zm10.52,0L68,89.32H66.92L65.49,81.9h1l1,5.69h0l1-5.69Zm3.83,0H76.1v.79H74.2v2.47h1.37v.78H74.2v2.59h1.9v.79H73.24ZM80.91,84v5.29h-.82V81.9h1l1.62,5v-5h.82v7.42h-.86Zm6.45-2.13h3.2v.79H89.45v6.63h-1V82.69H87.36ZM100,88.53h.67a.85.85,0,0,0,.92-1V83.65a.84.84,0,0,0-.92-1H100Zm.79-6.63c1.3,0,1.77.83,1.77,1.93v3.56c0,1.09-.47,1.93-1.77,1.93H99V81.9Zm5.8,0h2.86v.79h-1.9v2.47h1.37v.78h-1.37v2.59h1.9v.79h-2.86Zm6.66,5.89V86.72h.91v1.09a.77.77,0,1,0,1.53,0v-.34a1.53,1.53,0,0,0-.65-1.21l-.74-.73c-.7-.69-1-1.1-1-1.91v-.26a1.46,1.46,0,0,1,1.64-1.54c1.15,0,1.65.56,1.65,1.58v.7h-.89v-.74c0-.52-.25-.76-.74-.76a.68.68,0,0,0-.75.74v.21c0,.47.26.74.69,1.16l.78.77a2.46,2.46,0,0,1,1,1.89v.38a1.52,1.52,0,0,1-1.7,1.64,1.48,1.48,0,0,1-1.69-1.6m7.37,1.53h1V81.9h-1Zm6.83-3.88h1.66v3.88h-.73v-.74a1.11,1.11,0,0,1-1.18.81c-1.1,0-1.58-.84-1.58-1.92V83.75a1.7,1.7,0,0,1,1.79-1.93c1.32,0,1.7.72,1.7,1.79v.65h-.9v-.72c0-.58-.18-.92-.78-.92s-.85.43-.85,1v4c0,.56.23,1,.81,1s.8-.35.8-.93V86.21h-.74ZM134,84v5.29h-.82V81.9h1l1.62,5v-5h.82v7.42h-.86Z" style="fill-rule:evenodd;fill:#ffffff;"/></svg>