<svg xmlns="http://www.w3.org/2000/svg" viewBox="0 0 150 90"><g fill="#ffffff"><g transform="translate(50,2) scale(0.35)"><path d="M15.58,34.08c57.42-5,67.64,9.75,75.51,17.12l0,0c.15-.07.3-.1.45-.16-2.93-6.35-5.2-16.22-14.19-20.35-1.94-.9-9.17-1.66-18.84-1.66-12.31,0-28.58,1.24-42.9,5M79.74,15.66c-5,.82-15,3.37-23.33,9.69,18.78-9.38,31.11-4.27,34,3.51a.94.94,0,0,1,.15-.06c0-5.92-4.15-13.22-9.76-13.22a7.42,7.42,0,0,0-1.05.08m21.42-1.8c.47,3,1.67,5.41.67,8-.35.91-.91,1.22-.9,1.84a.11.11,0,0,0,0,.05c.09.06.2.12.29.19l0-.11c3.34-2.26,5.61-7.59,9.5-8.24-1.48-2.34-4-.49-5.66,0,0-1,.76-1,1.15-1.62C109,9.57,103.66,5.79,107.72.77c-4.24,1.27-7.39,7.85-6.56,13.09m1.91,27.6a6.33,6.33,0,0,1-.07,1l.15.23,0-.12a1.08,1.08,0,0,0,.47.22c8.43-3.44,20-22,31.58-24.61l-.76,0c-11,0-28.78,12.92-31.4,23.33" style="fill-rule:evenodd"/></g><text x="75" y="55" text-anchor="middle" font-family="Georgia, 'Times New Roman', serif" font-size="34" letter-spacing="0.5">Moret</text><text x="75" y="74" text-anchor="middle" font-family="Georgia, 'Times New Roman', serif" font-size="6.2" letter-spacing="1.9">FLOWERS &amp; EVENT DESIGN</text></g></svg>
